<?xml version="1.0" standalone="no"?><!DOCTYPE svg PUBLIC "-//W3C//DTD SVG 1.1//EN" "http://www.w3.org/Graphics/SVG/1.1/DTD/svg11.dtd"><svg t="1490344268448" class="icon" style="" viewBox="0 0 1024 1024" version="1.1" xmlns="http://www.w3.org/2000/svg" p-id="9773" xmlns:xlink="http://www.w3.org/1999/xlink" width="128" height="128"><defs><style type="text/css"></style></defs><path d="M563.2 204.8c0-56.32-61.44-102.4-143.36-102.4H122.88C81.92 102.4 51.2 122.88 51.2 153.6v51.2M819.2 921.6H102.4c-30.72 0-51.2-20.48-51.2-51.2V204.8h768c30.72 0 51.2 20.48 51.2 51.2v614.4c0 30.72-20.48 51.2-51.2 51.2z" fill="#C79B15" p-id="9774"></path><path d="M819.2 921.6H102.4c-30.72 0-51.2-20.48-51.2-51.2L148.48 291.84c5.12-20.48 20.48-35.84 40.96-35.84H921.6c30.72 0 51.2 20.48 51.2 51.2l-102.4 563.2c0 30.72-20.48 51.2-51.2 51.2z" fill="#F6C736" p-id="9775"></path></svg>