<?xml version="1.0" standalone="no"?><!DOCTYPE svg PUBLIC "-//W3C//DTD SVG 1.1//EN" "http://www.w3.org/Graphics/SVG/1.1/DTD/svg11.dtd"><svg t="1490344436886" class="icon" style="" viewBox="0 0 1024 1024" version="1.1" xmlns="http://www.w3.org/2000/svg" p-id="13293" xmlns:xlink="http://www.w3.org/1999/xlink" width="128" height="128"><defs><style type="text/css"></style></defs><path d="M99.55567 85.31923A85.276421 85.276421 0 0 1 184.960091 0.000142H686.933285L938.666548 256.000071v683.605144A84.337754 84.337754 0 0 1 854.172349 1023.999858H184.049869A84.465754 84.465754 0 0 1 99.55567 939.562548V85.31923z" fill="#92A8C1" p-id="13294"></path><path d="M938.666548 256.000071H772.152817a85.33331 85.33331 0 0 1-85.219532-85.247976V0.000142L938.666548 256.000071z" fill="#657586" p-id="13295"></path><path d="M299.904059 327.310274h431.075436c6.613331 0 12.24533 2.37511 16.924439 7.125331 4.67911 4.764443 7.011554 10.495997 7.011554 17.223106s-2.332444 12.472885-7.011554 17.223107-10.32533 7.125331-16.924439 7.125331h-431.075436c-6.613331 0-12.259552-2.37511-16.92444-7.125331s-7.025776-10.510219-7.025776-17.223107 2.346666-12.458663 7.011554-17.223106a22.897771 22.897771 0 0 1 16.938662-7.125331z m0 292.252363h431.075436c6.613331 0 12.24533 2.37511 16.924439 7.125331s7.011554 10.495997 7.011554 17.223106-2.332444 12.458663-7.011554 17.223107a22.897771 22.897771 0 0 1-16.924439 7.125331h-431.075436c-6.613331 0-12.259552-2.37511-16.92444-7.125331-4.67911-4.764443-7.011554-10.495997-7.011553-17.223107s2.346666-12.472885 7.011553-17.223106 10.311108-7.125331 16.92444-7.125331z m0-97.436418h431.075436c6.613331 0 12.24533 2.37511 16.924439 7.139554 4.67911 4.750221 7.011554 10.481775 7.011554 17.208884 0 6.741331-2.332444 12.472885-7.011554 17.223106s-10.32533 7.139554-16.924439 7.139554h-431.075436c-6.613331 0-12.259552-2.389333-16.92444-7.139554s-7.011554-10.481775-7.011553-17.223106c0-6.727109 2.346666-12.458663 7.011553-17.208884a22.812438 22.812438 0 0 1 16.92444-7.139554z m0-97.407973h431.075436c6.613331 0 12.24533 2.37511 16.924439 7.125332s7.011554 10.495997 7.011554 17.223106-2.332444 12.458663-7.011554 17.223106a22.897771 22.897771 0 0 1-16.924439 7.125332h-431.075436c-6.613331 0-12.259552-2.37511-16.92444-7.125332-4.67911-4.764443-7.025776-10.495997-7.025776-17.223106s2.346666-12.472885 7.011554-17.223106 10.32533-7.125331 16.938662-7.125332z" fill="#FFFFFF" p-id="13296"></path></svg>